<?xml version="1.0" standalone="no"?>
<!DOCTYPE svg PUBLIC "-//W3C//DTD SVG 20010904//EN"
 "http://www.w3.org/TR/2001/REC-SVG-20010904/DTD/svg10.dtd">
<svg version="1.0" xmlns="http://www.w3.org/2000/svg"
 width="4096.000000pt" height="4096.000000pt" viewBox="0 0 4096.000000 4096.000000"
 preserveAspectRatio="xMidYMid meet">

<g transform="translate(0.000000,4096.000000) scale(0.100000,-0.100000)"
fill="#000000" stroke="none">
<path d="M5018 37119 c-570 -38 -1063 -484 -1163 -1054 -20 -117 -20 -333 0
-450 30 -171 102 -347 207 -505 40 -60 1503 -1528 7327 -7352 l7276 -7278
-7281 -7282 c-6216 -6217 -7289 -7295 -7333 -7363 -98 -151 -172 -336 -202
-505 -19 -105 -16 -345 5 -445 54 -255 161 -464 330 -642 334 -354 835 -486
1311 -348 114 33 234 90 344 161 76 50 954 924 7363 7333 l7278 7276 7277
-7276 c6095 -6094 7291 -7285 7357 -7328 331 -217 720 -276 1101 -166 387 111
717 432 844 819 51 155 64 236 64 406 0 270 -66 490 -217 720 -40 61 -1409
1435 -7330 7358 l-7281 7282 7276 7278 c5710 5711 7286 7293 7326 7352 153
228 224 458 224 730 0 355 -125 656 -375 906 -251 251 -551 375 -906 375 -272
0 -502 -71 -730 -224 -59 -40 -1641 -1616 -7352 -7326 l-7278 -7276 -7277
7276 c-5951 5950 -7292 7286 -7356 7328 -256 170 -519 240 -829 220z"/>
</g>
</svg>
